<svg xmlns="http://www.w3.org/2000/svg" xmlns:xlink="http://www.w3.org/1999/xlink" xmlns:lucid="lucid" width="941" height="1820"><g transform="translate(-500 40)" lucid:page-tab-id="0_0"><path d="M584 1330h240v60H584z" fill="none"/><path d="M900 160c0 11.05-8.95 20-20 20s-20-8.95-20-20 8.95-20 20-20 20 8.95 20 20z" stroke="#5e5e5e" stroke-width="3"/><path d="M816 400c-8.84 0-16 7.16-16 16v48c0 8.84 7.16 16 16 16h128c8.84 0 16-7.16 16-16v-48c0-8.84-7.16-16-16-16z" stroke="#5e5e5e" stroke-width="3" fill="#3aa6dd"/><use xlink:href="#a" transform="matrix(1,0,0,1,808,408) translate(27.617283950617285 36.44444444444444)"/><use xlink:href="#b" transform="matrix(1,0,0,1,808,408) translate(46.135802469135804 36.44444444444444)"/><path d="M880 182.5V380" stroke="#5e5e5e" stroke-width="2" fill="none"/><path d="M879.93 181.5l1.07-.03v1.06h-2v-1.14z" fill="#5e5e5e"/><path d="M880 395.26L875.36 381h9.28z" stroke="#5e5e5e" stroke-width="2" fill="#5e5e5e"/><path d="M1187.35 800c-13.67 0-27.35 3.44-27.35 9.76v60.48c0 6.4 13.78 9.76 27.35 9.76 13.57 0 27.35-3.36 27.35-9.76v-60.48c0-6.4-13.67-9.76-27.35-9.76zm0 3.44c14.44 0 23.96 3.84 23.96 6.32 0 2.48-9.56 6.32-23.95 6.32-14.33 0-23.9-3.84-23.9-6.32 0-2.56 9.46-6.32 23.9-6.32zm0 73.12c-14.44 0-23.9-3.84-23.9-6.32v-15.2c4.92 3.2 14.5 4.8 23.9 4.8 9.46 0 19.04-1.68 23.96-4.8v15.2c0 2.48-9.5 6.32-23.95 6.32zm0-20.16c-14.44 0-23.9-3.76-23.9-6.32v-15.2c4.92 3.12 14.5 4.8 23.9 4.8 9.46 0 19.04-1.76 23.96-4.8v15.2c0 2.56-9.5 6.32-23.95 6.32zm0-20.16c-15.75 0-23.9-4.08-23.9-6.32v-15.2c4.92 3.2 14.5 4.8 23.9 4.8 9.46 0 19.04-1.6 23.96-4.8v15.2c0 2.24-8.2 6.32-23.95 6.32z" stroke="#fff" stroke-opacity="0" fill="#3f8624"/><path d="M1167.86 824.3h4.05v3.42h-4.04v-3.43zM1167.86 844.45h4.05v3.43h-4.04v-3.43zM1167.86 864.6h4.05v3.45h-4.04v-3.44zM1173.88 824.3h7.15v3.42h-7.15v-3.43zM1173.88 844.45h7.15v3.43h-7.15v-3.43zM1173.88 864.6h7.15v3.45h-7.15v-3.44z" stroke="#fff" stroke-opacity="0" fill="#3f8624"/><use xlink:href="#c" transform="matrix(1,0,0,1,1130,889) translate(-4.135802469135811 17.77777777777778)"/><path d="M874.95 593.24c2.8-1.8 7.3-1.8 10.1 0l59.9 38.52c2.8 1.8 2.8 4.7 0 6.48l-59.9 38.52c-2.8 1.8-7.3 1.8-10.1 0l-59.9-38.52c-2.8-1.8-2.8-4.7 0-6.48z" stroke="#5e5e5e" stroke-width="3" fill="#c1e4f7"/><use xlink:href="#d" transform="matrix(1,0,0,1,815,595) translate(17.504999999999995 43.78777777777778)"/><path d="M880 482.5v89.45" stroke="#5e5e5e" stroke-width="2" fill="none"/><path d="M881 482.53h-2v-1.03h2z" fill="#5e5e5e"/><path d="M880 587.22l-4.64-14.27h9.28z" stroke="#5e5e5e" stroke-width="2" fill="#5e5e5e"/><path d="M880 680.55V780" stroke="#3f8624" stroke-width="2" fill="none"/><path d="M880.6 679.6l.4-.07v1.04h-2v-1.1z" fill="#3f8624"/><path d="M880 795.26L875.36 781h9.28z" stroke="#3f8624" stroke-width="2" fill="#3f8624"/><path d="M780 687.67c0-3.32 2.7-6 6-6h228c3.3 0 6 2.68 6 6V739c0 3.3-2.7 6-6 6H786c-3.3 0-6-2.7-6-6z" stroke="#000" stroke-opacity="0" stroke-width="3" fill="#fff" fill-opacity="0"/><use xlink:href="#e" transform="matrix(1,0,0,1,785,686.6666666666667) translate(96.88271604938271 31.27777777777778)"/><path d="M1080 586c0-3.3 2.7-6 6-6h108c3.3 0 6 2.7 6 6v88c0 3.3-2.7 6-6 6h-108c-3.3 0-6-2.7-6-6z" stroke="#5e5e5e" stroke-width="3" fill="#3aa6dd"/><use xlink:href="#f" transform="matrix(1,0,0,1,1092,592) translate(9.141975308641975 29.65277777777778)"/><use xlink:href="#g" transform="matrix(1,0,0,1,1092,592) translate(12.876543209876544 56.31944444444445)"/><path d="M894.75-5.25c0 8.15-6.6 14.75-14.75 14.75s-14.75-6.6-14.75-14.75S871.85-20 880-20s14.75 6.6 14.75 14.75z" stroke="#5e5e5e" stroke-width="3" fill="#fff"/><path d="M880 9.5v35.3c0 3.3 1.44 8.27 3.22 11.06L910 98m-30-47.2L850 98m0-73.75h60" stroke="#5e5e5e" stroke-width="3" fill="none"/><path d="M850-14c0-3.3 2.7-6 6-6h48c3.3 0 6 2.7 6 6v128c0 3.3-2.7 6-6 6h-48c-3.3 0-6-2.7-6-6z" fill="none"/><use xlink:href="#h" transform="matrix(1,0,0,1,770,98) translate(86.60493827160494 17.77777777777778)"/><path d="M800 806c0-3.3 2.7-6 6-6h148c3.3 0 6 2.7 6 6v88c0 3.3-2.7 6-6 6H806c-3.3 0-6-2.7-6-6z" stroke="#5e5e5e" stroke-width="3" fill="#3aa6dd"/><path d="M760 816c0-3.3 2.7-6 6-6h228c3.3 0 6 2.7 6 6v68c0 3.3-2.7 6-6 6H766c-3.3 0-6-2.7-6-6z" stroke="#000" stroke-opacity="0" stroke-width="3" fill="#fff" fill-opacity="0"/><use xlink:href="#i" transform="matrix(1,0,0,1,765,815) translate(53.3641975308642 39.65277777777778)"/><use xlink:href="#b" transform="matrix(1,0,0,1,765,815) translate(106.38888888888889 39.65277777777778)"/><path d="M962.5 820h179" stroke="#5e5e5e" stroke-width="2" fill="none"/><path d="M962.53 821h-1.03v-2h1.03z" fill="#5e5e5e"/><path d="M1156.76 820l-14.26 4.64v-9.28z" stroke="#5e5e5e" stroke-width="2" fill="#5e5e5e"/><path d="M1159 860H980" stroke="#5e5e5e" stroke-width="2" fill="none"/><path d="M1160 861h-1.03v-2h1.03z" fill="#5e5e5e"/><path d="M964.74 860l14.26-4.64v9.28z" stroke="#5e5e5e" stroke-width="2" fill="#5e5e5e"/><path d="M940 816c0-3.3 2.7-6 6-6h228c3.3 0 6 2.7 6 6v48c0 3.3-2.7 6-6 6H946c-3.3 0-6-2.7-6-6z" stroke="#000" stroke-opacity="0" stroke-width="3" fill="#fff" fill-opacity="0"/><use xlink:href="#j" transform="matrix(1,0,0,1,945,815) translate(85.98765432098766 30.27777777777778)"/><path d="M880 902.5v79.67" stroke="#5e5e5e" stroke-width="2" fill="none"/><path d="M881 902.53h-2v-1.03h2z" fill="#5e5e5e"/><path d="M880 997.43l-4.64-14.26h9.28z" stroke="#5e5e5e" stroke-width="2" fill="#5e5e5e"/><path d="M875.2 1003.6c2.65-2 6.95-2 9.6 0l70.4 52.8c2.65 2 2.65 5.2 0 7.2l-70.4 52.8c-2.65 2-6.95 2-9.6 0l-70.4-52.8c-2.65-2-2.65-5.2 0-7.2z" stroke="#5e5e5e" stroke-width="3" fill="#c1e4f7"/><use xlink:href="#k" transform="matrix(1,0,0,1,805,1005) translate(33.67783950617284 45.27777777777778)"/><use xlink:href="#l" transform="matrix(1,0,0,1,805,1005) translate(42.96796296296296 71.94444444444446)"/><path d="M1200 1540c-11.05 0-20 8.95-20 20v60c0 11.05 8.95 20 20 20h120c11.05 0 20-8.95 20-20v-60c0-11.05-8.95-20-20-20z" stroke="#5e5e5e" stroke-width="3" fill="#3aa6dd"/><use xlink:href="#m" transform="matrix(1,0,0,1,1188,1548) translate(37.46296296296296 19.77777777777778)"/><use xlink:href="#n" transform="matrix(1,0,0,1,1188,1548) translate(15.271604938271608 46.44444444444444)"/><use xlink:href="#o" transform="matrix(1,0,0,1,1188,1548) translate(91.69135802469135 46.44444444444444)"/><use xlink:href="#p" transform="matrix(1,0,0,1,1188,1548) translate(38.7283950617284 73.11111111111111)"/><path d="M729.64 1061H700v-2h29.64zm70.75 0h-47.15v-2h47.14z" fill="#c92d39"/><path d="M801.28 1059.4l.28 1.6h-1.2v-2h1.1zM699 1064.64l-14.26-4.64 14.26-4.64z" fill="#c92d39"/><path d="M700 1066l-18.5-6 18.5-6zm-12.03-6l10.03 3.26v-6.52z" fill="#c92d39"/><use xlink:href="#q" transform="matrix(1,0,0,1,729.6419683444038,1049.3333333333333) translate(0 14.222222222222223)"/><path d="M805 1226c0-3.3 2.7-6 6-6h138c3.3 0 6 2.7 6 6v98c0 3.3-2.7 6-6 6H811c-3.3 0-6-2.7-6-6z" stroke="#5e5e5e" stroke-width="3" fill="#3aa6dd"/><use xlink:href="#r" transform="matrix(1,0,0,1,817,1232) translate(33.40123456790124 47.34027777777778)"/><path d="M536 1020c-8.84 0-16 7.16-16 16v48c0 8.84 7.16 16 16 16h128c8.84 0 16-7.16 16-16v-48c0-8.84-7.16-16-16-16z" stroke="#5e5e5e" stroke-width="3" fill="#3aa6dd"/><use xlink:href="#s" transform="matrix(1,0,0,1,528,1028) translate(12.895061728395063 23.111111111111114)"/><use xlink:href="#t" transform="matrix(1,0,0,1,528,1028) translate(71.96913580246914 23.111111111111114)"/><use xlink:href="#u" transform="matrix(1,0,0,1,528,1028) translate(34.407407407407405 49.77777777777778)"/><path d="M880 1332.5v179.67" stroke="#5e5e5e" stroke-width="2" fill="none"/><path d="M881 1332.53h-2v-1.03h2z" fill="#5e5e5e"/><path d="M880 1527.43l-4.64-14.26h9.28z" stroke="#5e5e5e" stroke-width="2" fill="#5e5e5e"/><path d="M900 1740c0 11.05-8.95 20-20 20s-20-8.95-20-20 8.95-20 20-20 20 8.95 20 20z" stroke="#5e5e5e" stroke-width="3" fill="#fff"/><path d="M892 1740c0 6.63-5.37 12-12 12s-12-5.37-12-12 5.37-12 12-12 12 5.37 12 12z" stroke="#5e5e5e" stroke-width="3"/><path d="M881 1200h-2v-20.42h2zm0-41.75h-2v-37.92h2z" fill="#3f8624"/><path d="M881 1119.35v1h-2v-1.04zM880 1215.26l-4.64-14.26h9.28z" fill="#3f8624"/><path d="M880 1218.5l-6-18.5h12zm-3.26-16.5l3.26 10.03 3.26-10.03z" fill="#3f8624"/><use xlink:href="#v" transform="matrix(1,0,0,1,864.6913580246913,1158.2480493152057) translate(0 14.222222222222223)"/><path d="M600 1017.5V856c0-3.3 2.7-6 6-6h174" stroke="#5e5e5e" stroke-width="2" fill="none"/><path d="M601 1018.5h-2v-1.03h2z" fill="#5e5e5e"/><path d="M795.26 850L781 854.64v-9.28z" stroke="#5e5e5e" stroke-width="2" fill="#5e5e5e"/><path d="M600 1017.5V856c0-3.3 2.7-6 6-6h174" stroke="#5e5e5e" stroke-width="2" fill="none"/><path d="M601 1018.5h-2v-1.03h2z" fill="#5e5e5e"/><path d="M795.26 850L781 854.64v-9.28z" stroke="#5e5e5e" stroke-width="2" fill="#5e5e5e"/><path d="M1239.05 439.92l2.53 2.53.92 3.42v178.26l-.92 3.42-2.53 2.53-3.42.92h-33.13v-2h32.87l2.64-.7 1.8-1.8.7-2.63V446.13l-.7-2.64-1.8-1.8-2.63-.7H980v-2h255.63z" fill="#5e5e5e"/><path d="M1202.53 631h-1.03v-2h1.03zM979 444.64L964.74 440l14.26-4.64z" fill="#5e5e5e"/><path d="M980 446l-18.5-6 18.5-6zm-12.03-6l10.03 3.26v-6.52z" fill="#5e5e5e"/><path d="M1427.55 358.42l2.53 2.53.92 3.42v1219.76l-.92 3.42-2.53 2.53-3.42.92h-81.63v-2h81.37l2.64-.7 1.8-1.8.7-2.63V364.63l-.7-2.64-1.8-1.8-2.63-.7h-504.4l-2.65.7-1.77 1.8-.72 2.63V380h-2v-15.63l.93-3.42 2.53-2.53 3.4-.92h504.93z" fill="#5e5e5e"/><path d="M1342.53 1591h-1.03v-2h1.03zM913.33 395.26L908.7 381h9.27z" fill="#5e5e5e"/><path d="M913.33 398.5l-6-18.5h12.02zm-3.26-16.5l3.26 10.03L916.6 382z" fill="#5e5e5e"/><path d="M1001.63 636h-52.27v-2h52.27zm58.37 0h-34.77v-2H1060z" fill="#c92d39"/><path d="M949.4 636h-.95l-.18-2h1.12zM1075.26 635l-14.26 4.64v-9.28z" fill="#c92d39"/><path d="M1078.5 635l-18.5 6v-12zm-16.5 3.26l10.03-3.26-10.03-3.26z" fill="#c92d39"/><use xlink:href="#q" transform="matrix(1,0,0,1,1001.6288007681195,624.3333333333334) translate(0 14.222222222222223)"/><path d="M875.2 1533.6c2.65-2 6.95-2 9.6 0l70.4 52.8c2.65 2 2.65 5.2 0 7.2l-70.4 52.8c-2.65 2-6.95 2-9.6 0l-70.4-52.8c-2.65-2-2.65-5.2 0-7.2z" stroke="#5e5e5e" stroke-width="3" fill="#c1e4f7"/><use xlink:href="#w" transform="matrix(1,0,0,1,805,1535) translate(39.85067901234567 59.02777777777778)"/><path d="M881 1701.5h-2v-6.17h2zm0-27.5h-2v-23.67h2z" fill="#c92d39"/><path d="M881 1649.35v1h-2v-1.04zM880 1716.76l-4.64-14.26h9.28z" fill="#c92d39"/><path d="M880 1720l-6-18.5h12zm-3.26-16.5l3.26 10.03 3.26-10.03z" fill="#c92d39"/><use xlink:href="#q" transform="matrix(1,0,0,1,868.1975308641976,1673.9980493152057) translate(0 14.222222222222223)"/><path d="M1053.25 1591H959.6v-2h93.65zm106.75 0h-76.14v-2H1160z" fill="#3f8624"/><path d="M959.64 1591h-1.1l.18-.4-.28-1.6h1.2zM1175.26 1590l-14.26 4.64v-9.28z" fill="#3f8624"/><path d="M1178.5 1590l-18.5 6v-12zm-16.5 3.26l10.03-3.26-10.03-3.26z" fill="#3f8624"/><g><use xlink:href="#v" transform="matrix(1,0,0,1,1053.2469205444852,1579.3333333333333) translate(0 14.222222222222223)"/></g><path d="M1377.55 839.92l2.53 2.53.92 3.42v828.26l-.92 3.42-2.53 2.53-3.42.92H891.8v-2h482.07l2.64-.7 1.8-1.8.7-2.63V846.13l-.7-2.64-1.8-1.8-2.63-.7H1233.2v-2h140.93z" fill="#5e5e5e"/><path fill="#5e5e5e"/><path d="M1232.2 844.64l-14.26-4.64 14.26-4.64z" fill="#5e5e5e"/><path d="M1233.2 846l-18.5-6 18.5-6zm-12.03-6l10.03 3.26v-6.52z" fill="#5e5e5e"/><defs><path fill="#333" d="M54-142c48-35 137-8 131 61C196 18 31 33 14-55l32-4c7 23 22 37 52 37 35-1 51-22 54-58 4-55-73-65-99-34H22l8-134h141v27H59" id="x"/><use transform="matrix(0.06172839506172839,0,0,0.06172839506172839,0,0)" xlink:href="#x" id="a"/><path fill="#333" d="M240 0l2-218c-23 76-54 145-80 218h-23L58-218 59 0H30v-248h44l77 211c21-75 51-140 76-211h43V0h-30" id="y"/><path fill="#333" d="M100-194c62-1 85 37 85 99 1 63-27 99-86 99S16-35 15-95c0-66 28-99 85-99zM99-20c44 1 53-31 53-75 0-43-8-75-51-75s-53 32-53 75 10 74 51 75" id="z"/><path fill="#333" d="M108 0H70L1-190h34L89-25l56-165h34" id="A"/><path fill="#333" d="M24-231v-30h32v30H24zM24 0v-190h32V0H24" id="B"/><path fill="#333" d="M100-194c63 0 86 42 84 106H49c0 40 14 67 53 68 26 1 43-12 49-29l28 8c-11 28-37 45-77 45C44 4 14-33 15-96c1-61 26-98 85-98zm52 81c6-60-76-77-97-28-3 7-6 17-6 28h103" id="C"/><path fill="#333" d="M135-143c-3-34-86-38-87 0 15 53 115 12 119 90S17 21 10-45l28-5c4 36 97 45 98 0-10-56-113-15-118-90-4-57 82-63 122-42 12 7 21 19 24 35" id="D"/><g id="b"><use transform="matrix(0.06172839506172839,0,0,0.06172839506172839,0,0)" xlink:href="#y"/><use transform="matrix(0.06172839506172839,0,0,0.06172839506172839,18.456790123456788,0)" xlink:href="#z"/><use transform="matrix(0.06172839506172839,0,0,0.06172839506172839,30.80246913580247,0)" xlink:href="#A"/><use transform="matrix(0.06172839506172839,0,0,0.06172839506172839,41.91358024691358,0)" xlink:href="#B"/><use transform="matrix(0.06172839506172839,0,0,0.06172839506172839,46.79012345679013,0)" xlink:href="#C"/><use transform="matrix(0.06172839506172839,0,0,0.06172839506172839,59.135802469135804,0)" xlink:href="#D"/></g><path fill="#333" d="M24 0v-261h32V0H24" id="E"/><path fill="#333" d="M96-169c-40 0-48 33-48 73s9 75 48 75c24 0 41-14 43-38l32 2c-6 37-31 61-74 61-59 0-76-41-82-99-10-93 101-131 147-64 4 7 5 14 7 22l-32 3c-4-21-16-35-41-35" id="F"/><path fill="#333" d="M141-36C126-15 110 5 73 4 37 3 15-17 15-53c-1-64 63-63 125-63 3-35-9-54-41-54-24 1-41 7-42 31l-33-3c5-37 33-52 76-52 45 0 72 20 72 64v82c-1 20 7 32 28 27v20c-31 9-61-2-59-35zM48-53c0 20 12 33 32 33 41-3 63-29 60-74-43 2-92-5-92 41" id="G"/><path fill="#333" d="M185-189c-5-48-123-54-124 2 14 75 158 14 163 119 3 78-121 87-175 55-17-10-28-26-33-46l33-7c5 56 141 63 141-1 0-78-155-14-162-118-5-82 145-84 179-34 5 7 8 16 11 25" id="H"/><path fill="#333" d="M59-47c-2 24 18 29 38 22v24C64 9 27 4 27-40v-127H5v-23h24l9-43h21v43h35v23H59v120" id="I"/><path fill="#333" d="M114-163C36-179 61-72 57 0H25l-1-190h30c1 12-1 29 2 39 6-27 23-49 58-41v29" id="J"/><path fill="#333" d="M177-190C167-65 218 103 67 71c-23-6-38-20-44-43l32-5c15 47 100 32 89-28v-30C133-14 115 1 83 1 29 1 15-40 15-95c0-56 16-97 71-98 29-1 48 16 59 35 1-10 0-23 2-32h30zM94-22c36 0 50-32 50-73 0-42-14-75-50-75-39 0-46 34-46 75s6 73 46 73" id="K"/><g id="c"><use transform="matrix(0.06172839506172839,0,0,0.06172839506172839,0,0)" xlink:href="#E"/><use transform="matrix(0.06172839506172839,0,0,0.06172839506172839,4.876543209876543,0)" xlink:href="#z"/><use transform="matrix(0.06172839506172839,0,0,0.06172839506172839,17.22222222222222,0)" xlink:href="#F"/><use transform="matrix(0.06172839506172839,0,0,0.06172839506172839,28.333333333333332,0)" xlink:href="#G"/><use transform="matrix(0.06172839506172839,0,0,0.06172839506172839,40.67901234567901,0)" xlink:href="#E"/><use transform="matrix(0.06172839506172839,0,0,0.06172839506172839,45.55555555555556,0)" xlink:href="#H"/><use transform="matrix(0.06172839506172839,0,0,0.06172839506172839,60.37037037037037,0)" xlink:href="#I"/><use transform="matrix(0.06172839506172839,0,0,0.06172839506172839,66.5432098765432,0)" xlink:href="#z"/><use transform="matrix(0.06172839506172839,0,0,0.06172839506172839,78.88888888888889,0)" xlink:href="#J"/><use transform="matrix(0.06172839506172839,0,0,0.06172839506172839,86.23456790123457,0)" xlink:href="#G"/><use transform="matrix(0.06172839506172839,0,0,0.06172839506172839,98.58024691358025,0)" xlink:href="#K"/><use transform="matrix(0.06172839506172839,0,0,0.06172839506172839,110.92592592592594,0)" xlink:href="#C"/></g><path fill="#333" d="M205 0l-28-72H64L36 0H1l101-248h38L239 0h-34zm-38-99l-47-123c-12 45-31 82-46 123h93" id="L"/><path fill="#333" d="M115-194c55 1 70 41 70 98S169 2 115 4C84 4 66-9 55-30l1 105H24l-1-265h31l2 30c10-21 28-34 59-34zm-8 174c40 0 45-34 45-75s-6-73-45-74c-42 0-51 32-51 76 0 43 10 73 51 73" id="M"/><path fill="#333" d="M103-251c84 0 111 97 45 133-19 10-37 24-39 52H78c0-63 77-55 77-114 0-30-21-42-52-43-32 0-53 17-56 46l-32-2c7-45 34-72 88-72zM77 0v-35h34V0H77" id="N"/><g id="d"><use transform="matrix(0.06172839506172839,0,0,0.06172839506172839,0,0)" xlink:href="#L"/><use transform="matrix(0.06172839506172839,0,0,0.06172839506172839,14.814814814814813,0)" xlink:href="#M"/><use transform="matrix(0.06172839506172839,0,0,0.06172839506172839,27.160493827160494,0)" xlink:href="#M"/><use transform="matrix(0.06172839506172839,0,0,0.06172839506172839,39.50617283950617,0)" xlink:href="#J"/><use transform="matrix(0.06172839506172839,0,0,0.06172839506172839,46.85185185185185,0)" xlink:href="#z"/><use transform="matrix(0.06172839506172839,0,0,0.06172839506172839,59.197530864197525,0)" xlink:href="#A"/><use transform="matrix(0.06172839506172839,0,0,0.06172839506172839,70.30864197530863,0)" xlink:href="#C"/><use transform="matrix(0.06172839506172839,0,0,0.06172839506172839,82.65432098765432,0)" xlink:href="#N"/></g><path fill="#333" d="M137-103V0h-34v-103L8-248h37l75 118 75-118h37" id="O"/><g id="e"><use transform="matrix(0.06172839506172839,0,0,0.06172839506172839,0,0)" xlink:href="#O"/><use transform="matrix(0.06172839506172839,0,0,0.06172839506172839,12.777777777777777,0)" xlink:href="#C"/><use transform="matrix(0.06172839506172839,0,0,0.06172839506172839,25.123456790123456,0)" xlink:href="#D"/></g><path fill="#333" d="M212-179c-10-28-35-45-73-45-59 0-87 40-87 99 0 60 29 101 89 101 43 0 62-24 78-52l27 14C228-24 195 4 139 4 59 4 22-46 18-125c-6-104 99-153 187-111 19 9 31 26 39 46" id="P"/><path fill="#333" d="M106-169C34-169 62-67 57 0H25v-261h32l-1 103c12-21 28-36 61-36 89 0 53 116 60 194h-32v-121c2-32-8-49-39-48" id="Q"/><path fill="#333" d="M117-194c89-4 53 116 60 194h-32v-121c0-31-8-49-39-48C34-167 62-67 57 0H25l-1-190h30c1 10-1 24 2 32 11-22 29-35 61-36" id="R"/><g id="f"><use transform="matrix(0.06172839506172839,0,0,0.06172839506172839,0,0)" xlink:href="#P"/><use transform="matrix(0.06172839506172839,0,0,0.06172839506172839,15.987654320987653,0)" xlink:href="#Q"/><use transform="matrix(0.06172839506172839,0,0,0.06172839506172839,28.333333333333332,0)" xlink:href="#G"/><use transform="matrix(0.06172839506172839,0,0,0.06172839506172839,40.67901234567901,0)" xlink:href="#R"/><use transform="matrix(0.06172839506172839,0,0,0.06172839506172839,53.02469135802469,0)" xlink:href="#K"/><use transform="matrix(0.06172839506172839,0,0,0.06172839506172839,65.37037037037037,0)" xlink:href="#C"/></g><path fill="#333" d="M210-169c-67 3-38 105-44 169h-31v-121c0-29-5-50-35-48C34-165 62-65 56 0H25l-1-190h30c1 10-1 24 2 32 10-44 99-50 107 0 11-21 27-35 58-36 85-2 47 119 55 194h-31v-121c0-29-5-49-35-48" id="S"/><g id="g"><use transform="matrix(0.06172839506172839,0,0,0.06172839506172839,0,0)" xlink:href="#S"/><use transform="matrix(0.06172839506172839,0,0,0.06172839506172839,18.456790123456788,0)" xlink:href="#z"/><use transform="matrix(0.06172839506172839,0,0,0.06172839506172839,30.80246913580247,0)" xlink:href="#A"/><use transform="matrix(0.06172839506172839,0,0,0.06172839506172839,41.91358024691358,0)" xlink:href="#B"/><use transform="matrix(0.06172839506172839,0,0,0.06172839506172839,46.79012345679013,0)" xlink:href="#C"/><use transform="matrix(0.06172839506172839,0,0,0.06172839506172839,59.135802469135804,0)" xlink:href="#D"/></g><path fill="#333" d="M232-93c-1 65-40 97-104 97C67 4 28-28 28-90v-158h33c8 89-33 224 67 224 102 0 64-133 71-224h33v155" id="T"/><g id="h"><use transform="matrix(0.06172839506172839,0,0,0.06172839506172839,0,0)" xlink:href="#T"/><use transform="matrix(0.06172839506172839,0,0,0.06172839506172839,15.987654320987653,0)" xlink:href="#D"/><use transform="matrix(0.06172839506172839,0,0,0.06172839506172839,27.098765432098766,0)" xlink:href="#C"/><use transform="matrix(0.06172839506172839,0,0,0.06172839506172839,39.44444444444444,0)" xlink:href="#J"/></g><path fill="#333" d="M233-177c-1 41-23 64-60 70L243 0h-38l-65-103H63V0H30v-248c88 3 205-21 203 71zM63-129c60-2 137 13 137-47 0-61-80-42-137-45v92" id="U"/><g id="i"><use transform="matrix(0.06172839506172839,0,0,0.06172839506172839,0,0)" xlink:href="#U"/><use transform="matrix(0.06172839506172839,0,0,0.06172839506172839,15.987654320987653,0)" xlink:href="#G"/><use transform="matrix(0.06172839506172839,0,0,0.06172839506172839,28.333333333333332,0)" xlink:href="#I"/><use transform="matrix(0.06172839506172839,0,0,0.06172839506172839,34.50617283950617,0)" xlink:href="#C"/></g><path fill="#333" d="M179-190L93 31C79 59 56 82 12 73V49c39 6 53-20 64-50L1-190h34L92-34l54-156h33" id="V"/><g id="j"><use transform="matrix(0.06172839506172839,0,0,0.06172839506172839,0,0)" xlink:href="#G"/><use transform="matrix(0.06172839506172839,0,0,0.06172839506172839,12.345679012345679,0)" xlink:href="#D"/><use transform="matrix(0.06172839506172839,0,0,0.06172839506172839,23.45679012345679,0)" xlink:href="#V"/><use transform="matrix(0.06172839506172839,0,0,0.06172839506172839,34.5679012345679,0)" xlink:href="#R"/><use transform="matrix(0.06172839506172839,0,0,0.06172839506172839,46.913580246913575,0)" xlink:href="#F"/></g><g id="k"><use transform="matrix(0.06172839506172839,0,0,0.06172839506172839,0,0)" xlink:href="#L"/><use transform="matrix(0.06172839506172839,0,0,0.06172839506172839,14.814814814814813,0)" xlink:href="#M"/><use transform="matrix(0.06172839506172839,0,0,0.06172839506172839,27.160493827160494,0)" xlink:href="#M"/><use transform="matrix(0.06172839506172839,0,0,0.06172839506172839,39.50617283950617,0)" xlink:href="#J"/><use transform="matrix(0.06172839506172839,0,0,0.06172839506172839,46.85185185185185,0)" xlink:href="#z"/><use transform="matrix(0.06172839506172839,0,0,0.06172839506172839,59.197530864197525,0)" xlink:href="#A"/><use transform="matrix(0.06172839506172839,0,0,0.06172839506172839,70.30864197530863,0)" xlink:href="#C"/></g><g id="l"><use transform="matrix(0.06172839506172839,0,0,0.06172839506172839,0,0)" xlink:href="#U"/><use transform="matrix(0.06172839506172839,0,0,0.06172839506172839,15.987654320987653,0)" xlink:href="#G"/><use transform="matrix(0.06172839506172839,0,0,0.06172839506172839,28.333333333333332,0)" xlink:href="#I"/><use transform="matrix(0.06172839506172839,0,0,0.06172839506172839,34.50617283950617,0)" xlink:href="#B"/><use transform="matrix(0.06172839506172839,0,0,0.06172839506172839,39.382716049382715,0)" xlink:href="#R"/><use transform="matrix(0.06172839506172839,0,0,0.06172839506172839,51.72839506172839,0)" xlink:href="#K"/></g><g id="m"><use transform="matrix(0.06172839506172839,0,0,0.06172839506172839,0,0)" xlink:href="#U"/><use transform="matrix(0.06172839506172839,0,0,0.06172839506172839,15.987654320987653,0)" xlink:href="#C"/><use transform="matrix(0.06172839506172839,0,0,0.06172839506172839,28.333333333333332,0)" xlink:href="#D"/><use transform="matrix(0.06172839506172839,0,0,0.06172839506172839,39.44444444444444,0)" xlink:href="#C"/><use transform="matrix(0.06172839506172839,0,0,0.06172839506172839,51.79012345679012,0)" xlink:href="#I"/><use transform="matrix(0.06172839506172839,0,0,0.06172839506172839,57.96296296296296,0)" xlink:href="#D"/></g><g id="n"><use transform="matrix(0.06172839506172839,0,0,0.06172839506172839,0,0)" xlink:href="#S"/><use transform="matrix(0.06172839506172839,0,0,0.06172839506172839,18.456790123456788,0)" xlink:href="#z"/><use transform="matrix(0.06172839506172839,0,0,0.06172839506172839,30.80246913580247,0)" xlink:href="#A"/><use transform="matrix(0.06172839506172839,0,0,0.06172839506172839,41.91358024691358,0)" xlink:href="#B"/><use transform="matrix(0.06172839506172839,0,0,0.06172839506172839,46.79012345679013,0)" xlink:href="#C"/><use transform="matrix(0.06172839506172839,0,0,0.06172839506172839,59.135802469135804,0)" xlink:href="#D"/></g><path fill="#333" d="M85-194c31 0 48 13 60 33l-1-100h32l1 261h-30c-2-10 0-23-3-31C134-8 116 4 85 4 32 4 16-35 15-94c0-66 23-100 70-100zm9 24c-40 0-46 34-46 75 0 40 6 74 45 74 42 0 51-32 51-76 0-42-9-74-50-73" id="W"/><g id="o"><use transform="matrix(0.06172839506172839,0,0,0.06172839506172839,0,0)" xlink:href="#G"/><use transform="matrix(0.06172839506172839,0,0,0.06172839506172839,12.345679012345679,0)" xlink:href="#R"/><use transform="matrix(0.06172839506172839,0,0,0.06172839506172839,24.691358024691358,0)" xlink:href="#W"/></g><g id="p"><use transform="matrix(0.06172839506172839,0,0,0.06172839506172839,0,0)" xlink:href="#J"/><use transform="matrix(0.06172839506172839,0,0,0.06172839506172839,7.345679012345679,0)" xlink:href="#G"/><use transform="matrix(0.06172839506172839,0,0,0.06172839506172839,19.691358024691358,0)" xlink:href="#I"/><use transform="matrix(0.06172839506172839,0,0,0.06172839506172839,25.864197530864196,0)" xlink:href="#B"/><use transform="matrix(0.06172839506172839,0,0,0.06172839506172839,30.74074074074074,0)" xlink:href="#R"/><use transform="matrix(0.06172839506172839,0,0,0.06172839506172839,43.08641975308642,0)" xlink:href="#K"/><use transform="matrix(0.06172839506172839,0,0,0.06172839506172839,55.432098765432094,0)" xlink:href="#D"/></g><path fill="#333" d="M175 0L67-191c6 58 2 128 3 191H24v-248h59L193-55c-6-58-2-129-3-193h46V0h-61" id="X"/><path fill="#333" d="M110-194c64 0 96 36 96 99 0 64-35 99-97 99-61 0-95-36-95-99 0-62 34-99 96-99zm-1 164c35 0 45-28 45-65 0-40-10-65-43-65-34 0-45 26-45 65 0 36 10 65 43 65" id="Y"/><g id="q"><use transform="matrix(0.04938271604938272,0,0,0.04938271604938272,0,0)" xlink:href="#X"/><use transform="matrix(0.04938271604938272,0,0,0.04938271604938272,12.790123456790125,0)" xlink:href="#Y"/></g><g id="r"><use transform="matrix(0.06172839506172839,0,0,0.06172839506172839,0,0)" xlink:href="#H"/><use transform="matrix(0.06172839506172839,0,0,0.06172839506172839,14.814814814814813,0)" xlink:href="#Q"/><use transform="matrix(0.06172839506172839,0,0,0.06172839506172839,27.160493827160494,0)" xlink:href="#G"/><use transform="matrix(0.06172839506172839,0,0,0.06172839506172839,39.50617283950617,0)" xlink:href="#J"/><use transform="matrix(0.06172839506172839,0,0,0.06172839506172839,46.85185185185185,0)" xlink:href="#C"/></g><g id="s"><use transform="matrix(0.06172839506172839,0,0,0.06172839506172839,0,0)" xlink:href="#P"/><use transform="matrix(0.06172839506172839,0,0,0.06172839506172839,15.987654320987653,0)" xlink:href="#E"/><use transform="matrix(0.06172839506172839,0,0,0.06172839506172839,20.864197530864196,0)" xlink:href="#C"/><use transform="matrix(0.06172839506172839,0,0,0.06172839506172839,33.20987654320987,0)" xlink:href="#G"/><use transform="matrix(0.06172839506172839,0,0,0.06172839506172839,45.55555555555555,0)" xlink:href="#J"/></g><g id="t"><use transform="matrix(0.06172839506172839,0,0,0.06172839506172839,0,0)" xlink:href="#y"/><use transform="matrix(0.06172839506172839,0,0,0.06172839506172839,18.456790123456788,0)" xlink:href="#z"/><use transform="matrix(0.06172839506172839,0,0,0.06172839506172839,30.80246913580247,0)" xlink:href="#A"/><use transform="matrix(0.06172839506172839,0,0,0.06172839506172839,41.91358024691358,0)" xlink:href="#B"/><use transform="matrix(0.06172839506172839,0,0,0.06172839506172839,46.79012345679013,0)" xlink:href="#C"/></g><g id="u"><use transform="matrix(0.06172839506172839,0,0,0.06172839506172839,0,0)" xlink:href="#U"/><use transform="matrix(0.06172839506172839,0,0,0.06172839506172839,15.987654320987653,0)" xlink:href="#G"/><use transform="matrix(0.06172839506172839,0,0,0.06172839506172839,28.333333333333332,0)" xlink:href="#I"/><use transform="matrix(0.06172839506172839,0,0,0.06172839506172839,34.50617283950617,0)" xlink:href="#B"/><use transform="matrix(0.06172839506172839,0,0,0.06172839506172839,39.382716049382715,0)" xlink:href="#R"/><use transform="matrix(0.06172839506172839,0,0,0.06172839506172839,51.72839506172839,0)" xlink:href="#K"/><use transform="matrix(0.06172839506172839,0,0,0.06172839506172839,64.07407407407408,0)" xlink:href="#D"/></g><path fill="#333" d="M146-102V0H94v-102L6-248h54l60 105 60-105h54" id="Z"/><path fill="#333" d="M185-48c-13 30-37 53-82 52C43 2 14-33 14-96s30-98 90-98c62 0 83 45 84 108H66c0 31 8 55 39 56 18 0 30-7 34-22zm-45-69c5-46-57-63-70-21-2 6-4 13-4 21h74" id="aa"/><path fill="#333" d="M137-138c1-29-70-34-71-4 15 46 118 7 119 86 1 83-164 76-172 9l43-7c4 19 20 25 44 25 33 8 57-30 24-41C81-84 22-81 20-136c-2-80 154-74 161-7" id="ab"/><g id="v"><use transform="matrix(0.04938271604938272,0,0,0.04938271604938272,0,0)" xlink:href="#Z"/><use transform="matrix(0.04938271604938272,0,0,0.04938271604938272,10.864197530864198,0)" xlink:href="#aa"/><use transform="matrix(0.04938271604938272,0,0,0.04938271604938272,20.74074074074074,0)" xlink:href="#ab"/></g><g id="w"><use transform="matrix(0.06172839506172839,0,0,0.06172839506172839,0,0)" xlink:href="#U"/><use transform="matrix(0.06172839506172839,0,0,0.06172839506172839,15.987654320987653,0)" xlink:href="#C"/><use transform="matrix(0.06172839506172839,0,0,0.06172839506172839,28.333333333333332,0)" xlink:href="#D"/><use transform="matrix(0.06172839506172839,0,0,0.06172839506172839,39.44444444444444,0)" xlink:href="#C"/><use transform="matrix(0.06172839506172839,0,0,0.06172839506172839,51.79012345679012,0)" xlink:href="#I"/><use transform="matrix(0.06172839506172839,0,0,0.06172839506172839,57.96296296296296,0)" xlink:href="#N"/></g></defs></g></svg>